<?xml version="1.0" standalone="no"?><!DOCTYPE svg PUBLIC "-//W3C//DTD SVG 1.1//EN" "http://www.w3.org/Graphics/SVG/1.1/DTD/svg11.dtd"><svg t="1751351339210" class="icon" viewBox="0 0 1024 1024" version="1.1" xmlns="http://www.w3.org/2000/svg" p-id="1163" xmlns:xlink="http://www.w3.org/1999/xlink" width="200" height="200"><path d="M142.222222 174.364444m113.777778 0l512 0q113.777778 0 113.777778 113.777778l0 512q0 113.777778-113.777778 113.777778l-512 0q-113.777778 0-113.777778-113.777778l0-512q0-113.777778 113.777778-113.777778Z" fill="#FF8031" p-id="1164"></path><path d="M305.777778 110.08h71.111111v184.888889h-71.111111zM647.111111 110.08h71.111111v184.888889h-71.111111z" p-id="1165"></path><path d="M327.111111 501.475556m-42.666667 0a42.666667 42.666667 0 1 0 85.333334 0 42.666667 42.666667 0 1 0-85.333334 0Z" fill="#FFFFFF" p-id="1166"></path><path d="M526.222222 501.475556m-42.666666 0a42.666667 42.666667 0 1 0 85.333333 0 42.666667 42.666667 0 1 0-85.333333 0Z" fill="#FFFFFF" p-id="1167"></path><path d="M725.333333 501.475556m-42.666666 0a42.666667 42.666667 0 1 0 85.333333 0 42.666667 42.666667 0 1 0-85.333333 0Z" fill="#FFFFFF" p-id="1168"></path><path d="M327.111111 700.586667m-42.666667 0a42.666667 42.666667 0 1 0 85.333334 0 42.666667 42.666667 0 1 0-85.333334 0Z" fill="#FFFFFF" p-id="1169"></path><path d="M526.222222 700.586667m-42.666666 0a42.666667 42.666667 0 1 0 85.333333 0 42.666667 42.666667 0 1 0-85.333333 0Z" fill="#FFFFFF" p-id="1170"></path></svg>